#!OML:ASF H:\LiuWeirdWalks\Patient Classification 1\Patient 1\Session 1\male.ASF
:FULLY-SPECIFIED
:DEGREES
409
root 0.55658 17.6193 6.16036 3.21599 6.94523 -6.68696
lowerback 17.2009 0.420757 -1.97483
upperback 0.494923 0.464934 3.0699
thorax -9.18533 0.388808 4.34817
lowerneck -19.1596 0.154266 5.83099
upperneck 18.2095 -0.309488 -5.29669
head 8.83486 -0.318794 -2.81511
rclavicle 6.4605e-015 1.98785e-015
rhumerus -46.0949 -2.12089 -79.1731
rradius 38.7164
rwrist -13.0707
rhand -20.0251 -0.86253
rfingers 7.12502
rthumb 6.31561 -30.7484
lclavicle 6.4605e-015 1.98785e-015
lhumerus -34.9065 -8.26039 87.4927
lradius 45.1891
lwrist 6.07729
lhand -18.4578 -8.3706
lfingers 7.12502
lthumb 7.82845 21.4645
rfemur -24.1499 -11.0419 18.5204
rtibia 85.4458
rfoot -1.69331 -12.0145
rtoes -6.83506
lfemur -21.4706 -3.68626 -20.189
ltibia 42.7716
lfoot -16.6172 14.1497
ltoes -8.2299
410
root 0.555486 17.6403 6.26359 3.55834 7.21983 -6.52125
lowerback 17.0969 0.396304 -1.99115
upperback 0.450943 0.430447 3.06683
thorax -9.17216 0.373397 4.36198
lowerneck -19.1138 0.0933815 5.83526
upperneck 18.0672 -0.382847 -5.35482
head 8.77309 -0.359869 -2.84176
rclavicle 1.72446e-014 8.34896e-015
rhumerus -45.6292 -2.0804 -79.1824
rradius 38.7277
rwrist -12.929
rhand -20.2091 -0.969457
rfingers 7.12502
rthumb 6.13795 -30.8605
lclavicle 1.72446e-014 8.34896e-015
lhumerus -34.4755 -8.38628 87.6368
lradius 45.4101
lwrist 6.08568
lhand -18.3852 -8.09553
lfingers 7.12502
lthumb 7.89857 21.7369
rfemur -24.4211 -10.9368 18.4906
rtibia 85.497
rfoot -1.51207 -12.2877
rtoes -6.47257
lfemur -21.2894 -4.36727 -20.353
ltibia 42.4562
lfoot -16.4117 14.6288
ltoes -8.1949
411
root 0.553144 17.6562 6.36523 3.87532 7.51349 -6.38372
lowerback 17.0391 0.370873 -1.98113
upperback 0.405515 0.400598 3.0738
thorax -9.18688 0.359889 4.37121
lowerneck -19.0989 0.00598813 5.7587
upperneck 17.9932 -0.485802 -5.33746
head 8.73888 -0.412023 -2.83442
rclavicle 5.2181e-015 2.56432e-014
rhumerus -45.1554 -2.01947 -79.1984
rradius 38.6975
rwrist -12.6995
rhand -20.4271 -1.0391
rfingers 7.12502
rthumb 5.9275 -30.9362
lclavicle 5.2181e-015 2.56432e-014
lhumerus -34.0978 -8.55282 87.7962
lradius 45.6748
lwrist 6.12108
lhand -18.4013 -7.87226
lfingers 7.12502
lthumb 7.88305 21.9608
rfemur -24.6579 -10.8471 18.5023
rtibia 85.57
rfoot -1.42773 -12.4854
rtoes -6.19228
lfemur -21.1598 -5.00627 -20.4797
ltibia 42.2677
lfoot -16.2481 15.0474
ltoes -8.22289
412
root 0.549714 17.6669 6.46544 4.16666 7.82049 -6.27277
lowerback 17.0048 0.343815 -1.94384
upperback 0.371118 0.374291 3.08744
thorax -9.20287 0.346901 4.37132
lowerneck -19.0547 -0.0744225 5.7101
upperneck 17.8694 -0.581955 -5.34276
head 8.68281 -0.461582 -2.83719
rclavicle -4.74598e-015 1.74931e-014
rhumerus -44.6627 -1.94824 -79.2193
rradius 38.6437
rwrist -12.4169
rhand -20.6316 -1.11316
rfingers 7.12502
rthumb 5.73003 -31.0157
lclavicle -4.74598e-015 1.74931e-014
lhumerus -33.75 -8.77766 87.9649
lradius 45.9723
lwrist 6.2228
lhand -18.5128 -7.7531
lfingers 7.12502
lthumb 7.7754 22.0839
rfemur -24.8601 -10.7676 18.5524
rtibia 85.6635
rfoot -1.41913 -12.6108
rtoes -6.01436
lfemur -21.0856 -5.57571 -20.5714
ltibia 42.2154
lfoot -16.1275 15.3914
ltoes -8.36855
413
root 0.54608 17.6722 6.5641 4.4435 8.14327 -6.168
lowerback 17.0075 0.31349 -1.89047
upperback 0.335986 0.346784 3.10233
thorax -9.24026 0.333086 4.36449
lowerneck -19.0445 -0.162919 5.63266
upperneck 17.7738 -0.686901 -5.32562
head 8.64226 -0.514968 -2.82949
rclavicle -3.15571e-015 1.0138e-014
rhumerus -44.1693 -1.87721 -79.2331
rradius 38.5691
rwrist -12.1035
rhand -20.8149 -1.13208
rfingers 7.12502
rthumb 5.5531 -31.0393
lclavicle -3.15571e-015 1.0138e-014
lhumerus -33.4405 -9.05689 88.1456
lradius 46.3014
lwrist 6.37686
lhand -18.7075 -7.70634
lfingers 7.12502
lthumb 7.58746 22.1376
rfemur -25.0409 -10.7102 18.6113
rtibia 85.7783
rfoot -1.45379 -12.6567
rtoes -5.92198
lfemur -21.0836 -6.06985 -20.6532
ltibia 42.313
lfoot -16.0379 15.6628
ltoes -8.63998
414
root 0.542246 17.6718 6.66113 4.70991 8.46563 -6.05919
lowerback 17.0313 0.282118 -1.83389
upperback 0.308762 0.317937 3.11285
thorax -9.28073 0.318295 4.35157
lowerneck -19.0079 -0.245608 5.56867
upperneck 17.6294 -0.785139 -5.31961
head 8.58085 -0.565574 -2.82559
rclavicle 1.28465e-014 -1.16289e-014
rhumerus -43.6527 -1.78395 -79.2538
rradius 38.4741
rwrist -11.8169
rhand -20.9686 -1.13095
rfingers 7.12502
rthumb 5.40463 -31.042
lclavicle 1.28465e-014 -1.16289e-014
lhumerus -33.1336 -9.36103 88.314
lradius 46.6327
lwrist 6.50942
lhand -18.9133 -7.72134
lfingers 7.12502
lthumb 7.38884 22.1296
rfemur -25.2132 -10.6645 18.6676
rtibia 85.9149
rfoot -1.49451 -12.6253
rtoes -5.94808
lfemur -21.161 -6.46862 -20.7359
ltibia 42.5709
lfoot -15.9788 15.8594
ltoes -9.02298
415
root 0.538449 17.6662 6.75747 4.97368 8.78581 -5.9473
lowerback 17.0682 0.250103 -1.77424
upperback 0.281296 0.288487 3.11946
thorax -9.32877 0.303102 4.33303
lowerneck -18.9625 -0.331845 5.49255
upperneck 17.4527 -0.88752 -5.30244
head 8.50704 -0.617896 -2.8155
rclavicle -9.41742e-015 -1.44119e-014
rhumerus -43.1361 -1.68352 -79.2733
rradius 38.3745
rwrist -11.5601
rhand -21.0908 -1.13909
rfingers 7.12502
rthumb 5.28668 -31.0531
lclavicle -9.41742e-015 -1.44119e-014
lhumerus -32.8572 -9.6827 88.4721
lradius 46.9794
lwrist 6.62736
lhand -19.1062 -7.80473
lfingers 7.12502
lthumb 7.20264 22.0527
rfemur -25.375 -10.6344 18.7203
rtibia 86.0656
rfoot -1.51317 -12.5283
rtoes -6.02385
lfemur -21.3325 -6.76982 -20.8177
ltibia 42.9998
lfoot -15.9484 15.976
ltoes -9.45572
416
root 0.534767 17.6559 6.85242 5.23989 9.11156 -5.83741
lowerback 17.1133 0.213891 -1.70169
upperback 0.257589 0.255747 3.12313
thorax -9.37698 0.285588 4.30477
lowerneck -18.9373 -0.419756 5.41152
upperneck 17.2612 -0.991526 -5.2885
head 8.43198 -0.671964 -2.80578
rclavicle -9.30561e-015 2.47984e-014
rhumerus -42.5999 -1.57586 -79.293
rradius 38.2633
rwrist -11.3642
rhand -21.2099 -1.09317
rfingers 7.12502
rthumb 5.17164 -31.0101
lclavicle -9.30561e-015 2.47984e-014
lhumerus -32.5818 -10.006 88.609
lradius 47.3244
lwrist 6.66472
lhand -19.2388 -7.88443
lfingers 7.12502
lthumb 7.07463 21.9773
rfemur -25.5395 -10.6312 18.776
rtibia 86.2251
rfoot -1.5035 -12.3795
rtoes -6.10699
lfemur -21.6135 -6.98037 -20.8928
ltibia 43.6056
lfoot -15.9314 16.0061
ltoes -9.93547
417
root 0.530583 17.6411 6.94631 5.50279 9.42899 -5.73685
lowerback 17.1665 0.17932 -1.6213
upperback 0.238215 0.226795 3.1271
thorax -9.42538 0.269446 4.27152
lowerneck -18.9248 -0.505646 5.33824
upperneck 17.047 -1.09423 -5.28364
head 8.35169 -0.726133 -2.79988
rclavicle 6.17475e-015 -1.27222e-014
rhumerus -42.0584 -1.46997 -79.3064
rradius 38.1528
rwrist -11.2186
rhand -21.3012 -0.985908
rfingers 7.12502
rthumb 5.08353 -30.9049
lclavicle 6.17475e-015 -1.27222e-014
lhumerus -32.3081 -10.3084 88.7194
lradius 47.6656
lwrist 6.59299
lhand -19.2979 -7.96292
lfingers 7.12502
lthumb 7.01759 21.9007
rfemur -25.7021 -10.6392 18.8483
rtibia 86.3872
rfoot -1.44622 -12.2015
rtoes -6.067
lfemur -22.0004 -7.09577 -20.9501
ltibia 44.3925
lfoot -15.9179 15.9471
ltoes -10.4618
418
root 0.526337 17.6227 7.04018 5.76339 9.75788 -5.62205
lowerback 17.2147 0.14116 -1.54245
upperback 0.225336 0.191848 3.12151
thorax -9.46327 0.249923 4.22995
lowerneck -18.9223 -0.585004 5.29472
upperneck 16.8314 -1.19181 -5.30343
head 8.27288 -0.778616 -2.80668
rclavicle 1.95617e-014 -2.86001e-014
rhumerus -41.5143 -1.37924 -79.3154
rradius 38.0469
rwrist -11.1098
rhand -21.3932 -0.850941
rfingers 7.12502
rthumb 4.99468 -30.7721
lclavicle 1.95617e-014 -2.86001e-014
lhumerus -32.0352 -10.5941 88.8028
lradius 47.993
lwrist 6.40661
lhand -19.2927 -8.05189
lfingers 7.12502
lthumb 7.02258 21.8116
rfemur -25.8464 -10.6911 18.9035
rtibia 86.5433
rfoot -1.36199 -12.0029
rtoes -5.90113
lfemur -22.4801 -7.15128 -21.0155
ltibia 45.3502
lfoot -15.9072 15.7969
ltoes -11.032
